<?xml version="1.0" encoding="UTF-8"?>
<svg id="Layer_2" data-name="Layer 2" xmlns="http://www.w3.org/2000/svg" viewBox="0 0 263.54 53.65">
  <defs>
    <style>
      .cls-1 {
        fill: #007bff;
      }

      .cls-2 {
        fill: #007bff;
      }

      .cls-3 {
        fill: #27aae1;
      }
    </style>
  </defs>
  <g id="Thicker_Text" data-name="Thicker Text">
    <path class="cls-2" d="M67.28,42.92l.78-4c-3.18,2.96-8.34,5.05-12.66,5.05-7.86,0-13.26-5.63-13.26-13.4,0-11.72,9.84-20.94,20.34-20.94,5.7,0,9.24,3.54,10.2,5.45l.78-4.35h7.32l-6.18,32.19h-7.32ZM70.4,24.65c0-4.81-3.12-7.95-8.1-7.95-6.36,0-12,5.97-12,12.18,0,4.7,3.42,8,8.16,8,6.6,0,11.94-6.03,11.94-12.24Z"/>
    <path class="cls-1" d="M80.2,42.92l6.18-32.19h7.32l-.54,2.84h.12c2.7-3.07,4.62-3.94,8.28-3.94h.24l-1.44,7.48c-4.86.17-7.8,2.73-8.7,7.6l-3.48,18.21h-7.98Z"/>
    <path class="cls-1" d="M118.8,42.92l-8.4-15.08h-.12l-2.88,15.08h-7.98L107.64,1.72l7.98-1.72-4.98,25.87h.12l13.56-15.14h9.18l-15.06,15.78,10.44,16.41h-10.08Z"/>
    <path class="cls-3" d="M207.68,43.96c-8.46,0-14.82-5.74-14.82-14.38,0-10.15,10.44-19.95,21.42-19.95,7.74,0,14.64,5.28,14.64,13.92,0,11.14-10.26,20.42-21.24,20.42ZM220.76,25.17c0-4.81-3-8.47-7.92-8.47-5.94,0-11.88,5.8-11.88,12.24,0,4.64,3.3,7.95,8.04,7.95,6.3,0,11.76-5.97,11.76-11.72Z"/>
    <path class="cls-3" d="M237.62,42.92l-7.26-32.19h8.64l3.96,21.34h.18l11.64-21.34h8.76l-19.68,32.19h-6.24Z"/>
    <path class="cls-1" d="M26.64,9.63c-4.44,0-8.34,1.45-11.7,4.87h-.12l.72-3.77h-7.32L0,53.65h7.98l2.64-13.8s0,0,0,0l1.83-11.45c.34-6.14,5.75-11.7,11.91-11.7,4.74,0,7.92,3.48,7.92,8.24,0,5.86-5.58,11.95-11.88,11.95-2.27,0-4.23-.86-5.64-2.24l-1.17,7.8c1.76,1.08,3.75,1.52,6.51,1.52,10.26,0,20.28-9.57,20.28-20.53,0-8-5.28-13.8-13.74-13.8Z"/>
    <path class="cls-3" d="M155.84,9.63c-4.44,0-8.34,1.45-11.7,4.87h-.12l.72-3.77h-7.32l-8.22,42.92h7.98l2.64-13.8s0,0,0,0l1.83-11.42c.32-6.16,5.74-11.73,11.91-11.73,4.74,0,7.92,3.48,7.92,8.24,0,5.86-5.58,11.95-11.88,11.95-2.27,0-4.23-.86-5.64-2.24l-1.17,7.8c1.76,1.07,3.75,1.51,6.51,1.51,10.26,0,20.28-9.57,20.28-20.53,0-8-5.28-13.8-13.74-13.8Z"/>
    <g id="R">
      <path class="cls-3" d="M190.08,17.11c-4.86.17-7.8,2.73-8.7,7.6l-3.48,18.21h-7.98l6.18-32.19h7.32l-.54,2.84h.12c2.7-3.07,4.49-2.95,8.15-2.95"/>
      <polyline class="cls-3" points="191.54 8.07 189.39 19.78 197.28 12.62"/>
    </g>
  </g>
</svg>